<svg t="1722310891116" class="icon" viewBox="0 0 1024 1024" version="1.1" xmlns="http://www.w3.org/2000/svg" p-id="938"
     width="32" height="32">
    <path d="M894.185422 354.136599C890.144386 236.397035 791.720749 143.910621 674.789597 147.992589c-57.94062 2.016937-111.23543 27.070542-150.225443 70.543659l-15.758915 16.040325-8.445346-9.089006c-40.079834-47.518247-99.151207-75.071789-161.575956-75.071789-116.971062 0-212.166167 95.797833-212.166167 213.619262 0 58.302871 22.988574 112.850208 64.807005 153.537885 0 0 18.467607 19.836791 43.719734 46.950312l-12.281721 12.564154c-21.98164 22.50455-21.494547 58.990532 1.050935 81.416288 11.030218 10.867512 25.573445 16.808828 40.929178 16.688077 2.62478-0.039909 4.968152-1.171686 7.55507-1.576915-0.566912 16.202007 4.927219 32.769334 17.574261 45.333488 13.980409 13.858636 32.770358 18.547425 50.42546 16.000416-1.211595 16.607236 3.880377 33.538861 16.649192 46.222741 13.613042 13.536294 32.081673 17.940604 49.616024 15.275915-0.687662 16.60519 4.846378 33.615609 17.816784 46.464241 11.79872 11.717879 27.315112 18.061354 43.517119 17.940604 12.20088-0.12075 23.153326-4.849448 32.685423-11.877515l2.100848 2.181689c15.030321 15.835663 34.669614 24.039509 53.53631 24.039509 14.628162 0 28.768207-5.052063 39.556924-15.352663 15.07023-14.46648 18.99154-35.96205 14.507412-56.970526 3.795443 0.684592 7.594979 2.423189 11.351536 2.423189 15.356756 0 30.141484-5.454222 41.657772-16.443507 15.678074-14.990413 20.122293-36.609803 16.000416-57.778938 4.042059 0.805342 8.039093 2.302439 12.121062 2.302439 15.192004 0 29.698392-5.252631 40.84936-15.919575 15.717983-15.030321 19.760043-37.294394 15.111163-58.910715 4.041036 0.769526 8.083096 2.548032 12.164041 2.548032 15.554254 0 30.584576-5.498224 42.342364-16.648169 11.637038-11.150968 18.262946-26.627451 18.710131-43.558052 0.483001-19.312858-7.233752-38.787398-21.173229-53.53324l-0.889253-1.010003 26.627451-26.949792C870.991164 477.28843 896.367111 416.963507 894.185422 354.136599L894.185422 354.136599zM285.167808 638.826524c-5.455245 5.575995-12.688997 8.646937-20.525476 8.727779-8.042163 0.039909-15.638165-3.070942-21.494547-8.807596-11.757788-11.717879-12.084223-30.66951-0.728594-42.346457l81.090876-82.990133c5.658883-5.816472 13.254885-8.726755 20.770046-8.726755 7.635911 0 15.311731 2.950192 21.253046 8.766664 11.673877 11.597129 12.08013 30.303166 0.967024 41.940205l-78.949097 80.808444c-0.160659 0.12075-0.160659 0.284479-0.281409 0.446162L285.167808 638.826524 285.167808 638.826524zM309.247226 699.230242c-12.443403-12.32163-13.372565-31.513738-2.423189-43.150776l79.033008-80.974219c0.080841-0.080841 0.12075-0.201591 0.201591-0.321318l2.221598-2.26253c5.17179-5.334495 12.240789-8.283664 19.998473-8.324596 8.645914-0.080841 16.929578 3.353374 23.315008 9.736758 12.526291 12.406564 13.456477 31.960922 2.060939 43.598984l-81.093946 83.069951C341.207126 712.240557 321.773518 711.636806 309.247226 699.230242L309.247226 699.230242zM419.59238 761.494331c-11.757788 12.000312-31.19242 11.95938-43.35339-0.080841-12.123109-12.000312-12.486382-31.55467-0.768503-43.558052l82.868359-84.84948c5.615904-5.695722 13.091156-8.887414 21.092387-8.968256 8.280594-0.080841 16.162098 3.151783 22.180162 9.049097 5.981225 5.901407 9.253758 13.81975 9.334599 22.143323 0.080841 7.918343-2.950192 15.312754-8.284687 21.012569l-80.68667 82.667791c-0.161682 0.12075-0.161682 0.36225-0.322341 0.523933L419.59238 761.494331 419.59238 761.494331zM467.75531 833.213769c-8.931416 0.039909-17.453511-3.514033-24.042579-10.019191-12.723789-12.647041-13.774725-32.487925-2.464121-44.528146l80.647785-82.627882c0.160659-0.12075 0.201591-0.2415 0.325411-0.402159l2.222621-2.263553c5.373381-5.498224 12.643971-8.525164 20.605294-8.606005 8.887414-0.080841 17.413602 3.474125 24.038486 10.0591 6.625908 6.505158 10.304693 15.071254 10.344602 24.039509 0.080841 7.961322-2.829442 15.436574-8.162914 20.890796l-82.868359 84.84948C482.987223 830.101895 475.673653 833.132928 467.75531 833.213769L467.75531 833.213769zM576.969711 839.758836c-5.579065 5.373381-12.929474 7.91732-20.770046 7.91732-11.432377 0-23.917736-5.414313-33.574676-15.675004 0 0-1.090844-1.130753-1.494027-1.576915l48.118927-49.334615c0.326435 0.366344 0.205685 0.849344 0.567935 1.211595l2.302439 2.427282C588.403111 802.062282 590.5848 826.749544 576.969711 839.758836L576.969711 839.758836zM783.074835 624.280226c-14.507412 13.858636-39.883359 11.274788-56.607252-5.735631-0.080841-0.12075-0.201591-0.161682-0.282433-0.2415l-91.113137-92.811826c-5.333472-5.41329-13.980409-5.535063-19.393699-0.12075-5.333472 5.334495-5.454222 14.060227-0.080841 19.47454l93.536326 95.395674c16.724917 17.779945 18.744923 43.35646 4.363378 57.091276-13.131065 12.607132-35.800367 10.868535-52.68799-3.997034-0.566912-0.487094-1.130753-0.648776-1.738597-1.011027l-90.911546-92.610234c-5.333472-5.454222-13.980409-5.494131-19.433608-0.161682-5.334495 5.374404-5.414313 14.141068-0.080841 19.555381l93.780897 95.516424c0.322341 0.285502 0.724501 0.406253 0.926092 0.688685 13.899568 17.09126 14.669094 40.527019 1.130753 53.375651-14.060227 13.452383-38.747489 10.948353-55.029314-5.656837-0.484024-0.566912-1.251503-0.36532-1.775436-0.808412l3.067872-3.151783c10.465352-10.747785 16.162098-25.133424 16.040325-40.527019-0.161682-16.322757-6.746658-31.760354-18.544355-43.474141-11.676947-11.556197-26.909883-17.899672-42.990117-17.899672l-0.523933 0c-2.548032 0.039909-4.64888 1.090844-7.072069 1.412163 0.080841-1.251503 0.688685-2.422166 0.688685-3.63376-0.124843-15.759939-6.384407-30.547737-17.578354-41.577954-11.150968-11.110035-25.939789-17.131169-41.533952-17.010419-3.799536 0.039909-7.151887 1.457188-10.750855 2.221598 0.325411-15.919575-5.290493-32.121582-17.696034-44.363394-11.556197-11.435447-26.546609-17.698081-42.302455-17.698081l-0.48607 0c-2.342348 0-4.403287 1.050935-6.665817 1.335415 0.808412-15.879666-4.364401-32.04074-16.60826-44.161802-22.546505-22.343891-58.786894-22.223141-80.808444 0.2415l-49.655933 50.867528-43.272549-46.584991c-36.891212-35.96205-56.929594-83.436294-56.929594-134.183072 0-102.589516 82.869383-186.025811 184.729282-186.025811 54.302767 0 105.737206 24.042579 140.930753 65.942875l9.576099 10.261715-69.175499 69.862137c0.124843 0.080841 0.366344 0.201591 0.487094 0.322341l-92.043323 92.00239c-5.212722 5.248537-5.857405 13.170974-0.849344 18.625196l10.787694 11.919471c30.547737 30.422893 70.992891 47.031153 113.944122 46.789653 42.989093-0.24457 83.271542-17.336854 113.533776-48.082088l52.043307-53.054333 161.536047 173.701111c9.012258 9.455349 13.980409 21.86089 13.657045 33.861202C793.012162 609.696066 789.374308 618.262162 783.074835 624.280226L783.074835 624.280226zM544.562627 237.567697c34.344203-38.385239 80.772628-60.162218 131.156132-61.941747 2.181689-0.039909 4.323469-0.080841 6.505158-0.080841 98.909707 0 181.090405 79.234599 184.528714 179.557492 1.896186 54.668087-20.203134 107.23328-60.568471 144.166447 0 0-10.465352 10.54517-26.627451 26.90886l-15.473413-16.442484L620.48376 354.941941c0 0-5.373381-1.332345-15.231913 9.736758l-5.901407 7.841595c-18.786878 19.067264-52.928466 53.696969-52.928466 53.696969-25.009603 25.493627-58.504462 39.677675-94.103238 39.879266l-0.806365 0c-35.273365 0-68.567655-13.737886-93.701079-38.748513 0 0-0.523933-0.566912-0.604774-0.647753"
          fill="#272636" p-id="939"></path>
</svg>