<svg t="1722222764938" class="icon" viewBox="0 0 1024 1024" version="1.1" xmlns="http://www.w3.org/2000/svg" p-id="908" width="200" height="200"><path d="M308.906667 233.344a85.333333 85.333333 0 0 1 73.92-42.666667h269.653333a85.333333 85.333333 0 0 1 73.92 42.666667l134.826667 233.536a85.333333 85.333333 0 0 1 0 85.333333l-134.826667 233.557334a85.333333 85.333333 0 0 1-73.898667 42.666666H382.826667a85.333333 85.333333 0 0 1-73.898667-42.666666L174.08 552.213333a85.333333 85.333333 0 0 1 0-85.333333l134.826667-233.536z m73.92 0a42.666667 42.666667 0 0 0-36.949334 21.333333l-134.826666 233.536a42.666667 42.666667 0 0 0 0 42.666667l134.826666 233.557333a42.666667 42.666667 0 0 0 36.949334 21.333334h269.653333a42.666667 42.666667 0 0 0 36.970667-21.333334l134.826666-233.557333a42.666667 42.666667 0 0 0 0-42.666667l-134.826666-233.536a42.666667 42.666667 0 0 0-36.949334-21.333333H382.826667z" fill="#000000" p-id="909"></path><path d="M634.389333 518.741333a114.517333 114.517333 0 1 1-229.056 0 114.517333 114.517333 0 0 1 229.056 0z m-114.538666 71.850667a71.850667 71.850667 0 1 0 0-143.722667 71.850667 71.850667 0 0 0 0 143.722667z" fill="#000000" p-id="910"></path></svg>